<svg version="1.1" id="Layer_1" xmlns="http://www.w3.org/2000/svg" xmlns:xlink="http://www.w3.org/1999/xlink" x="0px" y="0px"
	 width="100%" viewBox="0 0 500 500" enable-background="new 0 0 500 500" xml:space="preserve">
<path fill="#1E1E28" opacity="1.000000" stroke="none" 
	d="
M219.000000,501.000000 
	C146.000015,501.000000 73.500038,501.000000 1.000039,501.000000 
	C1.000026,334.333405 1.000026,167.666779 1.000013,1.000128 
	C167.666565,1.000086 334.333130,1.000086 500.999756,1.000043 
	C500.999847,167.666534 500.999847,334.333069 500.999939,500.999817 
	C407.166656,501.000000 313.333344,501.000000 219.000000,501.000000 
M307.283264,253.792801 
	C323.338348,238.586716 332.580261,219.983810 333.742279,197.900772 
	C336.509796,145.307343 292.428558,104.624786 239.872040,110.901520 
	C194.074219,116.371078 160.483643,161.842987 169.326309,207.119827 
	C175.496170,238.711197 193.851593,260.828918 224.398758,271.281372 
	C254.803467,281.685028 282.441956,275.110809 307.283264,253.792801 
M357.485626,335.983978 
	C345.463654,329.331116 332.583557,325.666626 318.846588,325.633148 
	C274.180450,325.524353 229.511902,325.314758 184.848206,325.656097 
	C149.743698,325.924347 119.311180,346.958313 107.507805,378.165833 
	C104.290565,386.672058 107.817490,391.957245 116.775520,391.958130 
	C206.274963,391.967010 295.774414,391.967438 385.273865,391.957947 
	C394.041779,391.957001 397.817505,386.620728 394.631653,378.578918 
	C387.379120,360.271759 375.151245,346.215881 357.485626,335.983978 
z"/>
<path fill="#FEFEFE" opacity="1.000000" stroke="none" 
	d="
M307.032013,254.044708 
	C282.441956,275.110809 254.803467,281.685028 224.398758,271.281372 
	C193.851593,260.828918 175.496170,238.711197 169.326309,207.119827 
	C160.483643,161.842987 194.074219,116.371078 239.872040,110.901520 
	C292.428558,104.624786 336.509796,145.307343 333.742279,197.900772 
	C332.580261,219.983810 323.338348,238.586716 307.032013,254.044708 
z"/>
<path fill="#FEFEFE" opacity="1.000000" stroke="none" 
	d="
M357.814514,336.145844 
	C375.151245,346.215881 387.379120,360.271759 394.631653,378.578918 
	C397.817505,386.620728 394.041779,391.957001 385.273865,391.957947 
	C295.774414,391.967438 206.274963,391.967010 116.775520,391.958130 
	C107.817490,391.957245 104.290565,386.672058 107.507805,378.165833 
	C119.311180,346.958313 149.743698,325.924347 184.848206,325.656097 
	C229.511902,325.314758 274.180450,325.524353 318.846588,325.633148 
	C332.583557,325.666626 345.463654,329.331116 357.814514,336.145844 
z"/>
</svg>